<svg width="140" height="24" viewBox="0 0 140 24" fill="none" xmlns="http://www.w3.org/2000/svg">
<g clip-path="url(#clip0_78_3344)">
<path d="M2.47604 7.93307V5.18435C2.48402 5.12169 2.47591 5.05802 2.4525 4.99937C2.42908 4.94071 2.39111 4.88902 2.3422 4.84915C2.21946 4.77966 2.08162 4.74129 1.94069 4.73741C1.80686 4.73741 1.15626 4.67782 -0.0111084 4.55863C0.0195628 4.48321 0.0558088 4.39382 0.100421 4.27929C0.145034 4.16476 0.178489 4.08934 0.200796 4.02229C0.223417 3.95383 0.234718 3.88212 0.234254 3.81C0.248195 3.68989 0.256565 3.38261 0.256565 2.88259V1.95517C0.256565 1.32945 0.576289 1.06873 1.21574 1.17302C1.40813 1.20375 1.62004 1.22889 1.85147 1.25123C2.08289 1.27358 2.33384 1.29314 2.60988 1.30711C2.88592 1.32107 3.1034 1.33783 3.26791 1.3518C3.43242 1.36576 4.09046 1.45236 5.24203 1.5641L7.88532 1.82109C8.04983 1.82109 8.32308 1.85461 8.72181 1.87696C9.12053 1.89931 9.40494 1.92445 9.61406 1.95517C9.71171 1.95252 9.80867 1.97214 9.89763 2.01257C9.98659 2.05299 10.0652 2.11316 10.1275 2.18852C10.1898 2.26387 10.2342 2.35244 10.2574 2.44752C10.2805 2.5426 10.2817 2.6417 10.2609 2.73733L10.1048 4.27929C9.80076 4.5563 9.45432 4.78265 9.07871 4.94971C8.68919 5.10444 8.35235 5.36821 8.10839 5.70952C7.97423 5.85167 7.87197 6.02094 7.80849 6.20595C7.74501 6.39096 7.72177 6.58743 7.74033 6.78218C7.771 6.94699 7.97733 7.1984 8.36491 7.54199C8.45246 7.58449 8.54688 7.61097 8.64373 7.62021C8.79058 7.64255 8.88353 7.65373 8.92256 7.65373C9.02573 7.68445 9.154 7.71798 9.30178 7.75429L9.62522 7.83251C9.70459 7.85 9.78281 7.87239 9.85943 7.89955C9.922 7.91788 9.98197 7.94417 10.0379 7.97776C10.0803 8.01368 10.1177 8.055 10.1494 8.10067C10.187 8.14619 10.2137 8.19969 10.2275 8.2571C10.2275 8.3018 10.2414 8.37722 10.2498 8.48058C10.2582 8.58394 10.2498 8.68449 10.2498 8.78226V9.19569C10.2498 9.29905 10.2498 9.43034 10.2721 9.58677C10.2887 9.71739 10.2811 9.84996 10.2498 9.97784C10.1745 10.4695 9.95145 10.7684 9.5806 10.8717C9.47744 10.9164 9.30177 10.9807 9.04525 11.0617L8.45413 11.2516C8.28228 11.3041 8.10716 11.3451 7.92993 11.3745C7.72081 11.4109 7.52842 11.4388 7.34997 11.4528C6.04877 11.4975 4.35349 11.4602 2.26413 11.341C1.5652 11.3094 1.07075 11.1641 0.780765 10.9053C0.490783 10.6464 0.375528 10.1808 0.435011 9.50855L0.591155 8.11185L1.59494 8.02246L1.75108 7.97776C1.86524 7.95536 1.98074 7.94043 2.09684 7.93307C2.22277 7.91766 2.35011 7.91766 2.47604 7.93307ZM3.90364 21.118L3.73634 21.1515C3.7001 21.1515 3.64712 21.1375 3.5802 21.0844C3.52773 21.0445 3.47918 20.9996 3.43521 20.9503C3.40454 20.914 3.35993 20.8526 3.30137 20.7716L3.15638 20.5928C3.11177 20.5481 3.00303 20.4503 2.83294 20.3135L2.35336 19.9C2.24995 19.8285 2.16569 19.7325 2.10798 19.6207C2.10798 19.59 2.10798 19.4782 2.10798 19.2855C2.1092 19.1728 2.09798 19.0604 2.07453 18.9503C2.05768 18.8534 2.07757 18.7538 2.1303 18.6709C2.19896 18.5636 2.28576 18.4691 2.38681 18.3916C2.50671 18.2938 2.62104 18.21 2.73257 18.1346C2.8441 18.0592 2.9863 17.9642 3.15638 17.8553C3.32647 17.7463 3.45752 17.6458 3.54674 17.5759C3.89063 17.3208 4.35535 17.0079 4.94089 16.6373C5.52566 16.2716 6.09149 15.8763 6.63617 15.4529C6.77864 15.3434 6.92762 15.2426 7.08229 15.1512C7.2468 15.0535 7.36113 14.992 7.39459 14.9613C7.47255 14.8748 7.52976 14.7716 7.56188 14.6596C7.63532 14.4588 7.67672 14.2476 7.68456 14.0339C7.6985 13.788 7.72918 13.397 7.77379 12.8606C7.77379 12.7713 8.05262 12.707 8.61028 12.6707C9.16874 12.6344 9.72946 12.6569 10.2833 12.7377C10.8409 12.8187 11.1197 12.9584 11.1197 13.1511C11.1182 13.8461 11.1629 14.5404 11.2536 15.2294C11.3975 15.4474 11.588 15.6306 11.8112 15.7658C12.9135 16.5554 14.527 17.129 16.6517 17.4865C16.727 17.5005 16.8078 17.5117 16.8971 17.52C16.957 17.5236 17.0166 17.5311 17.0755 17.5424L17.1759 17.5759C17.1928 17.5822 17.2078 17.5927 17.2195 17.6063C17.2312 17.62 17.2392 17.6365 17.2428 17.6541C17.2484 17.7099 17.2484 17.766 17.2428 17.8217C17.2428 17.8664 17.2122 18.0536 17.1536 18.3804L17.0867 18.738C17.0727 18.8134 17.0421 18.9419 16.9975 19.129C16.9703 19.2536 16.9368 19.3767 16.8971 19.4978C16.8748 19.5564 16.8413 19.6626 16.7967 19.8106C16.7717 19.912 16.7261 20.0071 16.6629 20.09C16.6182 20.1347 16.5597 20.2017 16.4844 20.2911C16.4251 20.3694 16.3434 20.4279 16.2502 20.4587L15.9379 20.5369C15.8025 20.5672 15.6631 20.5748 15.5252 20.5593C15.3525 20.5407 15.1811 20.5108 15.0122 20.4699C14.9369 20.4559 14.778 20.428 14.5326 20.3917C14.2872 20.3554 14.0725 20.3134 13.8857 20.2688C13.6951 20.225 13.5086 20.1652 13.3281 20.09C12.6699 19.8179 12.048 19.4651 11.4766 19.0397C11.3121 18.9195 11.0612 18.7184 10.7182 18.4363L10.0713 17.8999L9.93751 17.8106C9.85024 17.7577 9.75652 17.7164 9.65868 17.6876C9.58911 17.6703 9.51633 17.6703 9.44676 17.6876C9.39966 17.6996 9.35456 17.7184 9.31292 17.7435C9.27246 17.7689 9.23504 17.7989 9.20139 17.8329L9.12332 17.9111C8.67719 18.2538 7.93365 18.7603 6.89269 19.4307C5.92985 20.0508 4.93182 20.6141 3.90364 21.118ZM6.46887 5.36314C5.60729 5.25978 5.13886 5.20671 5.07473 5.20671C4.73177 5.17598 4.56168 5.33241 4.56168 5.676C4.57646 5.90295 4.57646 6.13063 4.56168 6.35759C4.54644 6.57707 4.54644 6.79735 4.56168 7.01683C4.57563 7.50847 4.79869 7.76826 5.23087 7.79899C5.39016 7.81811 5.55117 7.81811 5.71046 7.79899C5.84645 7.7721 5.97322 7.71052 6.07851 7.62021C6.20188 7.51521 6.28147 7.36769 6.30157 7.20678C6.32388 7.0969 6.37965 6.48236 6.46887 5.36314ZM11.4432 5.34078V3.08371C11.4432 2.89097 11.4432 2.61163 11.4209 2.24569C11.3986 1.87976 11.3986 1.61717 11.3986 1.45236C11.3676 1.22735 11.4148 0.998505 11.5324 0.804292C11.6001 0.730281 11.683 0.671945 11.7755 0.633349C11.8679 0.594752 11.9677 0.576824 12.0678 0.580819C12.6967 0.530485 13.3261 0.670628 13.8746 0.98307C14.0193 1.06458 14.1354 1.18872 14.2072 1.33864C14.2791 1.48857 14.3031 1.65701 14.2761 1.82109C14.2315 2.3267 14.1785 3.2178 14.1199 4.48042C14.1069 4.92736 14.0772 5.91064 14.0307 7.43026C13.9842 8.94987 13.9396 10.0784 13.8969 10.8159C13.8969 10.963 13.8151 11.6334 13.6515 12.8271C13.6069 13.1847 13.4368 13.3551 13.1385 13.3411C13.0302 13.3281 12.9205 13.3356 12.815 13.3635C12.7235 13.3862 12.6302 13.4011 12.5362 13.4081C12.0008 13.4398 11.6216 13.3281 11.3986 13.0729C11.1755 12.8178 11.0565 12.3783 11.0417 11.7544C11.0287 10.9052 11.051 9.79534 11.1086 8.42471C11.1181 8.37676 11.1181 8.32741 11.1085 8.27947C11.0989 8.23154 11.08 8.18596 11.0528 8.14537C11.019 8.11374 10.9778 8.09106 10.933 8.07935C10.8882 8.06765 10.8412 8.0673 10.7963 8.07833H10.7294C10.5716 8.08936 10.4136 8.0627 10.2681 8.00053C10.1227 7.93837 9.99409 7.84248 9.89289 7.72077C9.72049 7.39938 9.66904 7.02665 9.7479 6.67045C9.76034 6.40115 9.82078 6.13626 9.92635 5.88829C9.9696 5.79928 10.0321 5.72103 10.1092 5.65919C10.1864 5.59734 10.2763 5.55347 10.3725 5.53073C10.7255 5.44712 11.083 5.38371 11.4432 5.34078ZM18.9381 2.99432C18.6128 5.66296 18.4418 7.02615 18.4251 7.08388C18.3507 7.62021 18.1202 9.29625 17.7336 12.112C17.6889 12.5459 17.3915 12.896 16.8413 13.1623C16.3325 13.4257 15.7439 13.4895 15.1906 13.3411C15.0894 13.3131 14.9971 13.2592 14.9229 13.1848C14.8486 13.1104 14.7948 13.0179 14.7668 12.9165C14.5438 12.1782 14.4904 11.399 14.6107 10.6371C14.6669 10.2449 14.6818 9.84796 14.6553 9.45268C14.6413 8.82696 14.6413 8.43309 14.6553 8.26828C14.686 7.89676 14.7473 7.26265 14.8449 6.36876C14.9425 5.47487 15.0038 4.78211 15.0345 4.29047C15.0446 3.92859 15.0296 3.56644 14.9899 3.20662C14.9501 2.8468 14.9352 2.48466 14.9453 2.12278C14.9638 2.00207 14.9899 1.88265 15.0233 1.76523C15.051 1.65778 15.0883 1.55306 15.1349 1.45236L15.3245 1.07246L15.4806 0.759597C15.5113 0.700935 15.673 0.661829 15.9714 0.647862C16.8636 0.588269 17.4584 0.565921 17.7559 0.580819C17.8911 0.60166 18.0204 0.651183 18.1351 0.726077C18.2392 0.776869 18.325 0.858879 18.3804 0.960722C18.4557 1.17023 18.6398 1.84623 18.9381 2.99432Z" fill="#3A49E6"/>
<path d="M25.0723 7.66511V4.64823C25.075 4.62597 25.075 4.60345 25.0723 4.58119C25.0704 4.56881 25.0652 4.55716 25.0574 4.54737C25.0496 4.53758 25.0393 4.52999 25.0277 4.52532L24.9497 4.50297L24.8158 4.46945C24.682 4.46945 24.0314 4.40986 22.864 4.29068C22.9401 4.03702 22.9777 3.77336 22.9755 3.50852C22.9895 3.32974 23.0202 3.03923 23.0648 2.63698C23.1033 2.32548 23.1256 2.0122 23.1317 1.69839C23.1317 1.07267 23.4514 0.81195 24.0909 0.916237C24.2833 0.946965 24.4952 0.972105 24.7266 0.994452L25.485 1.0615L26.143 1.11736L28.7417 1.34084C29.924 1.44326 30.7456 1.51775 31.2066 1.56431C31.3711 1.57828 31.6443 1.59783 32.0431 1.62018C32.4418 1.64252 32.7262 1.66766 32.9353 1.69839C33.033 1.69573 33.1299 1.71536 33.2189 1.75579C33.3078 1.79621 33.3865 1.85638 33.4488 1.93173C33.5111 2.00709 33.5555 2.09566 33.5786 2.19074C33.6017 2.28582 33.603 2.38492 33.5822 2.48055L33.4261 4.02251V4.07838C33.4196 4.12194 33.4044 4.16375 33.3814 4.20129C33.347 4.26462 33.3017 4.32136 33.2476 4.36889C33.1655 4.43115 33.07 4.47324 32.9688 4.4918C32.8073 4.52467 32.6427 4.53966 32.478 4.53649C31.6164 4.53649 31.1703 5.13149 31.1397 6.36897C31.1034 6.65232 31.1379 6.94027 31.24 7.20699C31.288 7.26946 31.351 7.31867 31.4232 7.34995C31.4955 7.38123 31.5744 7.39356 31.6527 7.38577H32.5673C33.0887 7.3718 33.4038 7.43885 33.4818 7.5869C33.5599 7.73495 33.6073 8.19027 33.5933 8.95008C33.5933 9.03947 33.5933 9.16517 33.6157 9.32998C33.6332 9.45685 33.6256 9.58595 33.5933 9.70989C33.5854 9.91197 33.5175 10.1071 33.3983 10.2703C33.2791 10.4335 33.114 10.5574 32.9242 10.6261C32.6979 10.6862 32.4663 10.7236 32.2327 10.7379C31.9957 10.7518 31.7168 10.7574 31.3962 10.7379C31.0755 10.7183 30.8385 10.7379 30.6935 10.7379C29.1916 10.7826 27.3476 10.7528 25.1616 10.6485C25.0809 10.632 24.9986 10.6245 24.9162 10.6261C24.5593 10.6122 24.3028 10.5926 24.1466 10.5703C23.9781 10.5435 23.8156 10.4867 23.667 10.4026C23.5878 10.361 23.5188 10.3024 23.4648 10.2309C23.4108 10.1594 23.3732 10.0769 23.3548 9.98923C23.3073 9.7425 23.2997 9.48972 23.3324 9.24059L23.4886 7.84388L24.3585 7.68746C24.3994 7.69066 24.4404 7.69066 24.4812 7.68746L24.7601 7.65394C24.8642 7.64431 24.9691 7.64807 25.0723 7.66511ZM25.2285 13.2966C25.2731 13.2827 25.6105 13.1877 26.2434 13.0173C26.6965 12.8774 27.1644 12.7911 27.6376 12.7603C27.78 12.7607 27.922 12.7756 28.0614 12.805C28.2661 12.8525 28.4758 12.8751 28.686 12.872C28.8059 12.872 28.9648 12.872 29.199 12.8497C29.4332 12.8273 29.5894 12.8273 29.7009 12.8273C29.8124 12.8273 29.9797 12.8273 30.1916 12.8497C30.4035 12.872 30.5681 12.872 30.6712 12.872C31.074 12.8715 31.4763 12.8454 31.8758 12.7938C32.2912 12.7407 32.7485 12.6709 33.2476 12.5815C33.7467 12.4921 34.1287 12.4335 34.3964 12.4027C34.7364 12.3562 35.0793 12.3338 35.4225 12.3357C35.7654 12.3357 36.3398 12.3608 37.1512 12.4139C37.9626 12.467 38.4701 12.4921 38.6792 12.4921C38.7111 12.4899 38.743 12.4972 38.7708 12.5131C38.7986 12.529 38.8211 12.5528 38.8353 12.5815C39.1276 13.2137 39.2943 13.8968 39.3261 14.5928C39.3567 14.9643 39.3707 15.2548 39.3707 15.4643C39.3707 15.8088 39.3595 16.144 39.3372 16.4699C39.3149 16.7968 39.2843 17.185 39.248 17.632C39.2118 18.0789 39.1839 18.4058 39.1699 18.6153C39.0597 19.062 38.887 19.4908 38.6569 19.8891C38.5786 20.0638 38.4506 20.2115 38.2888 20.3137C38.1636 20.3962 38.0234 20.4532 37.8762 20.4813L37.3743 20.5483C37.1793 20.5533 36.9853 20.5758 36.7943 20.6153C36.6465 20.6461 36.4179 20.6796 36.114 20.7159C35.81 20.7522 35.5898 20.7857 35.4559 20.8165C35.3822 20.8294 35.3077 20.8368 35.2329 20.8388C34.9345 20.8388 34.7784 20.6517 34.7644 20.2801C34.7198 18.7158 34.6975 17.6134 34.6975 16.9727C34.6836 16.4811 34.4661 16.2353 34.0506 16.2353C34.0051 16.2359 33.96 16.2434 33.9168 16.2576C33.5981 16.2868 33.2816 16.3353 32.9688 16.4029C32.5589 16.4839 32.2968 16.5342 32.1769 16.5481C32.057 16.5621 31.8451 16.6012 31.4966 16.6599C31.148 16.7185 30.8497 16.7632 30.6043 16.794C30.3638 16.8239 30.1217 16.8388 29.8794 16.8387C29.2994 16.8387 28.1246 16.7642 26.355 16.6152C26.2477 16.5936 26.1456 16.5519 26.0538 16.4923C25.9423 16.4252 25.8865 16.361 25.8865 16.3023C25.8198 16.0829 25.734 15.8698 25.63 15.6654C25.5073 15.4189 25.4424 15.1476 25.4404 14.8721C25.4142 14.7218 25.3693 14.5754 25.3066 14.4363C25.2627 14.3564 25.2379 14.2675 25.2341 14.1764C25.2302 14.0853 25.2474 13.9945 25.2842 13.9112C25.2984 13.8679 25.3059 13.8227 25.3066 13.7771C25.3055 13.6941 25.2943 13.6115 25.2731 13.5313C25.2485 13.4552 25.2336 13.3764 25.2285 13.2966ZM29.5113 5.09517C28.6497 5.00578 28.1813 4.95271 28.1171 4.93874C27.7742 4.90802 27.6041 5.06445 27.6041 5.40804C27.6189 5.635 27.6189 5.86267 27.6041 6.08963C27.5889 6.30911 27.5889 6.52939 27.6041 6.74887C27.6041 7.25448 27.8411 7.51706 28.2733 7.53102C28.4328 7.54515 28.5933 7.54515 28.7529 7.53102C28.8892 7.51217 29.0171 7.45394 29.1209 7.36343C29.2475 7.25155 29.3272 7.09589 29.344 6.92765C29.3589 6.82336 29.4146 6.21254 29.5113 5.09517ZM41.4675 0.0670433C41.5418 1.35015 41.5864 2.01312 41.6013 2.05595C41.7352 3.16028 41.7054 4.76928 41.5121 6.88296C41.4824 7.24052 41.4266 7.74333 41.3448 8.3914C41.2639 9.03947 41.2137 9.47524 41.1998 9.69871C41.197 9.7741 41.1791 9.84814 41.147 9.91638C41.1149 9.98461 41.0693 10.0456 41.013 10.0957C40.9567 10.1459 40.8909 10.184 40.8195 10.208C40.7481 10.2319 40.6726 10.2411 40.5975 10.2351C40.433 10.2211 39.9284 10.2127 39.0807 10.2127C38.2331 10.2127 37.6866 10.2127 37.43 10.2127C37.1735 10.2127 37.0146 10.0088 36.9393 9.6205C36.9074 9.51091 36.885 9.39875 36.8724 9.28528C36.8724 9.16517 36.8473 9.06181 36.8389 8.97242C36.8306 8.88304 36.8389 8.76851 36.8166 8.62604C36.7943 8.48358 36.8166 8.37743 36.8166 8.30201C36.8166 8.22659 36.8166 8.11206 36.8166 7.95563C36.8166 7.7992 36.8166 7.69584 36.8166 7.64277C36.8166 7.58969 36.8166 7.47516 36.8389 7.29638C36.8443 7.19155 36.8554 7.0871 36.8724 6.98352C36.8898 6.86875 36.9009 6.75312 36.9058 6.63714C36.9058 6.43601 36.9281 6.32707 36.9281 6.3131C36.9728 5.85312 37.0099 4.86984 37.0397 3.36327V0.972105C37.0407 0.848553 37.0813 0.728607 37.1557 0.630004C37.23 0.531402 37.334 0.459383 37.4523 0.424599C38.0323 0.169468 39.3112 0.0279341 41.289 0C41.3505 0.0165115 41.4103 0.0389656 41.4675 0.0670433Z" fill="#3A49E6"/>
<path d="M52.7126 1.79601C52.7126 1.79601 53.0221 1.7122 53.5993 1.53901C53.9344 1.42506 54.2786 1.34002 54.6282 1.28481C57.132 1.1768 58.7753 1.13583 59.5579 1.1619C60.8783 1.17387 62.1683 1.56137 63.2774 2.27926C63.4489 2.40194 63.6035 2.54656 63.7375 2.70945C63.8594 2.8495 63.9739 2.99589 64.0805 3.14801C64.1585 3.26534 64.2701 3.45528 64.4151 3.72345C64.5601 3.99162 64.6493 4.16482 64.6939 4.24583C65.3711 5.3251 65.7226 6.57742 65.706 7.85212C65.6658 8.54817 65.4644 9.22528 65.1177 9.82984C64.8351 10.4217 64.3616 10.901 63.7738 11.1902C62.3791 11.8635 60.8956 12.3338 59.3683 12.5869C59.2862 12.5896 59.2059 12.6115 59.1338 12.6508C59.0616 12.69 58.9997 12.7457 58.9528 12.8132C58.871 12.9873 58.8457 13.1826 58.8803 13.3719C58.9166 13.9054 58.9779 14.8161 59.0699 16.1066C59.1619 17.3972 59.2289 18.3916 59.2763 19.0872C59.3004 19.3609 59.2614 19.5425 59.1591 19.6319C59.0208 19.7331 58.8536 19.787 58.6823 19.7855C57.7427 19.7855 56.9285 19.7855 56.2426 19.766C55.763 19.7511 54.4209 19.6896 52.2163 19.5816C52.1976 19.5568 52.1847 19.5282 52.1784 19.4977C52.1721 19.4673 52.1727 19.4358 52.1801 19.4056C52.1801 19.3302 52.2191 19.2045 52.2609 19.0257C52.2968 18.8925 52.3183 18.7558 52.3251 18.6179C52.3975 17.0722 52.4394 15.9549 52.4505 15.2658C52.4858 13.9957 52.5249 12.1111 52.5676 9.61196C52.6104 7.11279 52.6503 5.24121 52.6875 3.99721C52.7015 2.55302 52.7126 1.82394 52.7126 1.79601ZM57.6423 8.22084C57.9488 8.34997 58.2715 8.43645 58.6015 8.47784C58.8487 8.49912 59.096 8.43719 59.3041 8.30185C59.5074 8.17752 59.6899 8.02199 59.8451 7.84094C60.0617 7.57468 60.261 7.29477 60.4418 7.00292C60.5054 6.92645 60.5475 6.83434 60.5636 6.73612C60.5798 6.63789 60.5695 6.53713 60.5338 6.44424C60.4955 6.35736 60.4319 6.28415 60.3512 6.23428C60.2706 6.1844 60.1767 6.16021 60.0821 6.16489C59.4068 6.12624 58.7295 6.1468 58.0578 6.22635C58.0089 6.23358 57.962 6.25098 57.9202 6.27744C57.8785 6.3039 57.8427 6.33883 57.8152 6.37998C57.7359 6.46125 57.6825 6.56432 57.6618 6.67608C57.6507 6.77385 57.6423 7.29343 57.6423 8.20967V8.22084Z" fill="#3A49E6"/>
<path d="M75.3731 14.3971C75.3854 14.8154 75.5535 15.214 75.8443 15.5144C76.1535 15.8175 76.559 16.0024 76.9903 16.0368C77.4389 16.092 77.893 16.0855 78.3398 16.0172C78.461 15.9712 78.5698 15.8975 78.6577 15.8021C78.7616 15.701 78.8416 15.5779 78.8919 15.4418C78.9178 15.3326 78.9811 15.2359 79.0707 15.1685C79.1604 15.1012 79.2707 15.0674 79.3826 15.0731C80.4979 15.0312 81.3595 15.02 82.0008 15.0312C82.0823 15.0684 82.1505 15.1299 82.196 15.2071C82.2586 15.2777 82.2916 15.3698 82.288 15.4641C82.2609 16.3162 82.0657 17.1545 81.7136 17.9307C81.4153 18.4894 80.813 18.9866 79.9152 19.3973C79.7968 19.4689 79.6629 19.5111 79.5248 19.5202C79.3482 19.5332 78.7079 19.6216 77.6037 19.7855C76.7673 19.9419 75.9127 19.9767 75.0664 19.8889C73.254 19.6002 71.8292 18.9717 70.7919 18.0033C70.1605 17.3772 69.6964 16.602 69.4424 15.7491C69.4004 15.5962 69.3491 15.446 69.289 15.2993C69.2137 15.1066 69.1552 14.9501 69.1161 14.8272C69.0693 14.6805 69.0348 14.53 69.013 14.3775C68.9859 14.2076 68.9793 14.035 68.9935 13.8635C69.3188 11.5133 70.0409 9.73113 71.16 8.51693C72.5783 6.98614 74.2513 6.20771 76.1789 6.18164C76.9786 6.19413 77.7771 6.2482 78.5712 6.34365C79.3213 6.42746 79.9654 6.84927 80.523 7.61466C80.5819 7.6795 80.636 7.74859 80.6848 7.82137C81.0138 8.28507 81.2629 8.64636 81.432 8.90521C81.642 9.24158 81.8238 9.59475 81.9757 9.96112C82.1544 10.361 82.271 10.7858 82.3215 11.221C82.3494 11.4528 82.3661 11.7098 82.3745 11.9891C82.3828 12.2685 82.3745 12.5031 82.3745 12.6875C82.3745 12.8719 82.3549 13.1372 82.3438 13.4864C82.3326 13.8356 82.3159 14.0702 82.302 14.1931C82.302 14.2471 82.2574 14.3086 82.1681 14.3775C82.1084 14.432 82.0335 14.4671 81.9534 14.4781C81.6133 14.4781 80.7545 14.4781 79.377 14.439L75.7355 14.3552L75.3731 14.3971ZM74.9437 11.8969H77.5424C78.0331 11.8578 78.3231 11.7824 78.4123 11.6735C78.5015 11.5645 78.5099 11.2628 78.443 10.7712C78.4367 10.6606 78.3935 10.5554 78.3203 10.4723C78.2534 10.3852 78.17 10.3121 78.0749 10.2572C78.0052 10.2181 77.4866 10.0254 76.5191 9.68458C76.3418 9.6176 76.1474 9.61142 75.9662 9.66702C75.7851 9.72263 75.6275 9.83687 75.5181 9.99184C75.092 10.5313 74.8822 11.2107 74.9297 11.8969H74.9437Z" fill="#3A49E6"/>
<path d="M89.2866 11.0369L87.6527 11.2827C87.187 11.3665 86.8803 11.3413 86.7325 11.2101C86.6435 11.1088 86.5759 10.9905 86.5337 10.8623C86.4916 10.7341 86.4757 10.5987 86.4872 10.4642C86.4191 9.52349 86.4052 8.57962 86.4454 7.63729C86.4438 7.53975 86.462 7.44291 86.4989 7.35264C86.5358 7.26237 86.5906 7.18055 86.66 7.11212C86.8064 6.96838 86.9971 6.87874 87.201 6.85792C87.3237 6.84489 88.0393 6.77599 89.348 6.65121C89.4706 5.94169 89.532 5.56737 89.532 5.53385C89.5878 5.27406 89.663 4.89975 89.7578 4.41649C89.8527 3.93323 89.9084 3.64271 89.9223 3.57847C89.9457 3.42705 90.0154 3.28662 90.1217 3.17655C90.2281 3.06648 90.366 2.99219 90.5163 2.96392C91.6595 2.66223 92.5889 2.75534 93.3045 3.24326C93.4317 3.32318 93.535 3.43588 93.6037 3.56957C93.6723 3.70325 93.7039 3.85298 93.6949 4.00306C93.6949 4.22095 93.7339 4.98635 93.8176 6.29645C93.8455 6.61211 94.0351 6.7406 94.3753 6.68473C94.8813 6.59003 95.3941 6.53586 95.9088 6.52272C96.7007 6.49479 97.1171 6.86724 97.158 7.64008C97.1831 8.06468 97.1775 8.84404 97.1357 9.97537C97.1357 10.1402 97.0158 10.2938 96.7788 10.4363C96.5394 10.5804 96.2706 10.6683 95.9925 10.6933C95.8809 10.6933 95.4878 10.7743 94.8046 10.8972C94.7344 10.9018 94.6657 10.9204 94.6027 10.952C94.5397 10.9835 94.4837 11.0275 94.438 11.0811C94.3922 11.1347 94.3577 11.197 94.3364 11.2643C94.3151 11.3315 94.3074 11.4024 94.3139 11.4726C94.3418 12.6459 94.3827 13.8405 94.4366 15.0566C94.4327 15.1484 94.447 15.2401 94.4786 15.3264C94.5102 15.4126 94.5584 15.4918 94.6206 15.5594C94.7512 15.694 94.9249 15.7781 95.1114 15.7968C95.4338 15.8019 95.7507 15.7126 96.0231 15.5398C96.3271 15.3652 96.6643 15.2567 97.013 15.2214C97.2508 15.2021 97.4892 15.2526 97.6989 15.3666C97.7881 15.4477 97.8244 15.6655 97.8104 16.0203C97.7926 16.6245 97.7141 17.2253 97.5762 17.8137C97.4349 18.4338 97.1933 18.8267 96.8513 18.9925C95.5644 19.6205 94.1671 19.9896 92.7385 20.0791C91.7849 20.1611 91.2672 20.202 91.1855 20.202C90.3787 20.202 89.914 19.8296 89.7913 19.0847C89.5329 17.5278 89.3628 16.1888 89.281 15.0678C89.2671 14.6878 89.256 14.2828 89.2504 13.861C89.2448 13.4392 89.2504 12.9392 89.2504 12.3637C89.2504 11.7883 89.2866 11.3246 89.2866 11.0369Z" fill="#3A49E6"/>
<path d="M102.09 22.8276C102.241 20.4365 102.391 17.5676 102.539 14.2211C102.567 13.4967 102.605 12.4725 102.654 11.1484C102.701 9.8327 102.732 8.91367 102.746 8.41365C102.76 8.2656 102.782 8.0533 102.815 7.77955C102.844 7.58892 102.862 7.39679 102.868 7.20411C102.881 7.11395 102.901 7.02511 102.93 6.93873C102.955 6.85772 102.98 6.78789 102.999 6.73482C103.032 6.66755 103.082 6.61051 103.144 6.57C103.199 6.53318 103.25 6.49208 103.298 6.44709C103.355 6.40425 103.421 6.37295 103.49 6.35491L103.674 6.29345L104.076 6.15937C105.772 5.65552 107.579 5.6633 109.27 6.18172C111.847 6.92663 113.394 8.39503 113.913 10.5869C114.348 12.3747 114.123 13.8645 113.238 15.0564C112.446 16.1067 111.287 16.6942 109.761 16.819C108.969 16.8721 108.596 17.3442 108.646 18.2325C108.682 18.6038 108.689 18.9774 108.668 19.3498C108.668 19.9867 108.646 20.3583 108.646 20.4672C108.66 20.8499 108.679 21.3276 108.707 21.903C108.735 22.4785 108.481 22.8388 107.951 22.9478C107.037 23.1098 106.557 23.1964 106.468 23.202C106.379 23.2075 105.183 23.255 102.843 23.336C102.673 23.3448 102.505 23.2977 102.364 23.202C102.288 23.1714 102.222 23.1201 102.174 23.0539C102.125 22.9878 102.097 22.9094 102.09 22.8276ZM109.003 12.0702C109.11 11.7685 108.94 11.5088 108.492 11.2909C108.291 11.1933 108.072 11.1373 107.848 11.126C107.654 11.1147 107.46 11.1147 107.266 11.126C107.115 11.14 106.903 11.1763 106.63 11.2294C106.507 11.2573 106.418 11.3858 106.351 11.6205C106.33 11.8059 106.323 11.9927 106.331 12.1792C106.331 12.4585 106.351 12.6624 106.351 12.7714C106.353 12.9003 106.374 13.0282 106.412 13.1513C106.43 13.2441 106.468 13.3319 106.524 13.4083C106.604 13.4506 106.691 13.478 106.78 13.4893C106.905 13.5168 107.032 13.5272 107.16 13.52C107.274 13.52 107.469 13.4977 107.742 13.4697C108.094 13.4755 108.434 13.3465 108.693 13.1094C108.926 12.8126 109.037 12.4378 109.003 12.0618V12.0702Z" fill="#3A49E6"/>
<path d="M117.716 2.15673C117.88 2.11483 118.134 2.04499 118.483 1.94164C118.831 1.83828 119.138 1.75727 119.403 1.69582C119.668 1.63436 119.93 1.58408 120.189 1.54218C120.509 1.47252 120.842 1.52134 121.128 1.67958C121.415 1.83781 121.634 2.09471 121.745 2.40255C121.812 2.55165 121.867 2.70576 121.91 2.86346C121.95 3.02488 121.977 3.1893 121.99 3.3551C121.99 3.5255 122.01 3.67355 122.01 3.79646C122.008 3.96077 121.998 4.12489 121.979 4.2881C121.96 4.49202 121.946 4.64007 121.94 4.72946C121.935 4.81885 121.91 4.98087 121.868 5.2211C121.839 5.36593 121.818 5.51238 121.806 5.65967C121.751 6.00326 121.486 6.17924 121.009 6.19321C119.894 6.23511 119.118 6.25466 118.697 6.25466C118.591 6.23721 118.49 6.19513 118.402 6.13175C118.308 6.07344 118.227 5.99641 118.165 5.90549C117.615 4.98201 117.433 3.88482 117.655 2.83273C117.655 2.83273 117.674 2.60368 117.716 2.15673ZM118.249 8.71286C119.507 8.27695 120.874 8.27695 122.133 8.71286C122.876 8.95868 123.248 9.45032 123.248 10.1878C123.261 13.3723 123.261 15.9683 123.248 17.9758C123.248 18.5624 123.136 18.9479 122.969 19.1323C122.802 19.3166 122.411 19.4507 121.823 19.5317C121.661 19.5597 121.388 19.6099 121.006 19.6854C120.715 19.7474 120.421 19.7922 120.125 19.8195C120.022 19.8223 119.919 19.8037 119.823 19.7648C119.727 19.7258 119.64 19.6674 119.567 19.5932C119.325 19.3946 119.114 19.1601 118.943 18.8976C118.778 18.6332 118.661 18.342 118.597 18.0373C118.532 17.7666 118.484 17.4924 118.452 17.216C118.433 16.9981 118.416 16.6852 118.402 16.2746C118.39 16.1998 118.383 16.1241 118.382 16.0484C118.354 15.2699 118.314 13.6106 118.26 11.0705L118.249 8.71286Z" fill="#3A49E6"/>
<path d="M136.674 8.96682C136.411 8.63972 136.073 8.38262 135.687 8.21838C135.302 8.05414 134.882 7.98786 134.465 8.02545C134.322 8.0415 134.183 8.08715 134.058 8.15952C133.944 8.21751 133.837 8.28979 133.74 8.37462C133.665 8.44166 133.567 8.54223 133.445 8.67072C133.357 8.76864 133.264 8.86188 133.166 8.95006C132.693 9.37082 132.337 9.90726 132.133 10.507C131.928 11.1068 131.883 11.7493 132 12.372C132.123 13.2175 132.628 13.805 133.514 14.1346C134.63 14.5425 135.57 14.5015 136.336 14.0117C136.661 13.777 136.933 13.4762 137.134 13.129C137.183 13.0395 137.253 12.9629 137.337 12.9055C137.43 12.8803 137.528 12.8872 137.616 12.9251C137.928 13.048 138.503 13.2519 139.334 13.5396C139.563 13.5888 139.768 13.715 139.916 13.8972C140.013 14.1132 140.031 14.3565 139.966 14.5844C139.836 15.5355 139.381 16.4121 138.678 17.0649C138.027 17.6739 137.192 18.0483 136.305 18.1292C134.284 18.3366 132.243 17.997 130.397 17.1459C128.869 16.401 127.935 15.144 127.595 13.3748C127.304 11.8706 127.374 10.3187 127.798 8.84671C128.397 6.85222 129.427 5.45551 130.888 4.6566C131.365 4.3894 131.869 4.17312 132.391 4.01132C132.844 3.88115 133.321 3.85631 133.785 3.93869C134.263 4.02249 134.794 4.13236 135.38 4.26831C136.007 4.43033 136.595 4.60073 137.139 4.77951C137.535 4.90242 137.862 5.23669 138.121 5.78234C138.149 5.83821 138.338 6.2628 138.695 7.05334L136.674 8.96682Z" fill="#3A49E6"/>
</g>
<defs>
<clipPath id="clip0_78_3344">
<rect width="140" height="23.3333" fill="white"/>
</clipPath>
</defs>
</svg>
